<?xml version="1.0" encoding="UTF-8" standalone="no"?>
<svg
   xmlns:dc="http://purl.org/dc/elements/1.1/"
   xmlns:cc="http://creativecommons.org/ns#"
   xmlns:rdf="http://www.w3.org/1999/02/22-rdf-syntax-ns#"
   xmlns:svg="http://www.w3.org/2000/svg"
   xmlns="http://www.w3.org/2000/svg"
   version="1.1"
   id="svg2"
   xml:space="preserve"
   width="816"
   height="1056"
   viewBox="0 0 816 1056"><metadata
     id="metadata8"><rdf:RDF><cc:Work
         rdf:about=""><dc:format>image/svg+xml</dc:format><dc:type
           rdf:resource="http://purl.org/dc/dcmitype/StillImage" /><dc:title></dc:title></cc:Work></rdf:RDF></metadata><defs
     id="defs6"><clipPath
       clipPathUnits="userSpaceOnUse"
       id="clipPath22"><path
         d="M 0,792 H 612 V 0 H 0 Z"
         id="path20" /></clipPath></defs><path
     id="path3443"
     d="M 334.06795,925.35556 C 191.05049,898.36917 66.836626,785.19017 22.238281,641.22836 -40.755319,437.8875 78.438866,211.93945 285.2808,142.59701 c 75.57539,-25.33614 177.79037,-23.8579 260.8682,3.77282 48.63883,16.1767 125.80049,66.21574 159.32126,103.3192 39.53439,43.75986 73.9033,102.26558 90.61545,154.25329 13.76995,42.83577 15.54718,59.1625 14.13493,129.85841 -1.37325,68.74439 -4.2111,88.11155 -18.93612,129.23408 -21.47602,59.97583 -66.12628,126.26767 -113.86748,169.05794 -38.30587,34.33348 -119.99551,77.24114 -168.95562,88.74454 -51.94134,12.20365 -123.79743,14.06528 -174.39347,4.51827 z m 70.88941,-397.92897 0,-84.00219 193.78293,-1.71211 193.78297,-1.71211 -14.7474,-42.19762 C 738.81393,286.31849 648.34922,197.30899 534.33743,158.28025 470.04516,136.27157 377.72074,133.66093 310.03985,151.93789 175.64682,188.23014 68.101497,296.16887 32.695708,430.29667 21.359583,473.24133 17.418613,570.41255 25.939793,596.87352 l 4.687231,14.55525 187.165146,0 187.16519,0 0,-84.00218 z"
     style="fill:#000000" /></svg>
